<svg width="24" height="24" viewBox="0 0 24 24" fill="none" xmlns="http://www.w3.org/2000/svg">
<path d="M11.995 15.0616C11.8878 15.0616 11.7882 15.0423 11.696 15.0038C11.6038 14.9655 11.5192 14.9078 11.4422 14.8308L8.38274 11.7713C8.25074 11.6408 8.18565 11.488 8.18749 11.3128C8.18949 11.1377 8.2589 10.9808 8.39574 10.8423C8.54224 10.704 8.6994 10.6364 8.86724 10.6396C9.03524 10.6428 9.18849 10.7136 9.32699 10.8521L11.35 12.9001V4.7501C11.35 4.5656 11.4117 4.41118 11.5352 4.28685C11.6586 4.16235 11.8117 4.1001 11.9947 4.1001C12.1777 4.1001 12.3327 4.16235 12.4595 4.28685C12.5865 4.41118 12.65 4.5656 12.65 4.7501V12.9001L14.698 10.8521C14.8245 10.7201 14.9747 10.655 15.1487 10.6568C15.3226 10.6588 15.4827 10.729 15.6292 10.8673C15.7661 11.0058 15.8329 11.1607 15.8297 11.3318C15.8266 11.503 15.7557 11.6578 15.6172 11.7963L12.5577 14.8308C12.4741 14.9078 12.3862 14.9655 12.294 15.0038C12.2018 15.0423 12.1022 15.0616 11.995 15.0616ZM6.90074 18.7001C6.45024 18.7001 6.07082 18.5447 5.76249 18.2338C5.45415 17.923 5.29999 17.5425 5.29999 17.0923V16.2308C5.29999 16.0463 5.36174 15.8919 5.48524 15.7676C5.60857 15.6431 5.76174 15.5808 5.94474 15.5808C6.12774 15.5808 6.28265 15.6431 6.40949 15.7676C6.53649 15.8919 6.59999 16.0463 6.59999 16.2308V17.0923C6.59999 17.1693 6.63207 17.2398 6.69624 17.3038C6.76024 17.368 6.83074 17.4001 6.90774 17.4001H17.0922C17.1692 17.4001 17.2397 17.368 17.3037 17.3038C17.3679 17.2398 17.4 17.1693 17.4 17.0923V16.2308C17.4 16.0463 17.4617 15.8919 17.585 15.7676C17.7085 15.6431 17.8617 15.5808 18.0447 15.5808C18.2277 15.5808 18.3827 15.6431 18.5095 15.7676C18.6365 15.8919 18.7 16.0463 18.7 16.2308V17.0923C18.7 17.5425 18.5445 17.923 18.2335 18.2338C17.9225 18.5447 17.5417 18.7001 17.0912 18.7001H6.90074Z" fill="#171719"/>
</svg>
