<svg width="24" height="24" viewBox="0 0 24 24" fill="none" xmlns="http://www.w3.org/2000/svg">
<path d="M10.7058 13.3963L9.03277 11.748C8.89427 11.6097 8.74519 11.5389 8.58553 11.5355C8.42602 11.5324 8.27377 11.6032 8.12877 11.748C7.98394 11.893 7.91152 12.0479 7.91152 12.2125C7.91152 12.3772 7.98394 12.532 8.12877 12.677L10.148 14.6963C10.3122 14.8603 10.4981 14.9423 10.7058 14.9423C10.9134 14.9423 11.0994 14.8603 11.2635 14.6963L15.852 10.1078C15.9904 9.96927 16.0612 9.81602 16.0645 9.64802C16.0677 9.48019 15.9969 9.32378 15.852 9.17878C15.707 9.03394 15.5564 8.96152 15.4 8.96152C15.2437 8.96152 15.093 9.03394 14.948 9.17878L10.7058 13.3963ZM12.0018 21.1C10.7544 21.1 9.57769 20.8632 8.47152 20.3895C7.36536 19.9159 6.39719 19.2641 5.56702 18.4343C4.73686 17.6044 4.08477 16.6367 3.61077 15.531C3.13694 14.4254 2.90002 13.2489 2.90002 12.0018C2.90002 10.7378 3.13686 9.55686 3.61052 8.45902C4.08419 7.36119 4.73594 6.39719 5.56577 5.56702C6.39561 4.73686 7.36336 4.08477 8.46902 3.61077C9.57469 3.13694 10.7511 2.90002 11.9983 2.90002C13.2623 2.90002 14.4432 3.13686 15.541 3.61052C16.6389 4.08419 17.6029 4.73594 18.433 5.56577C19.2632 6.39561 19.9153 7.35919 20.3893 8.45652C20.8631 9.55386 21.1 10.7344 21.1 11.9983C21.1 13.2456 20.8632 14.4224 20.3895 15.5285C19.9159 16.6347 19.2641 17.6029 18.4343 18.433C17.6044 19.2632 16.6409 19.9153 15.5435 20.3893C14.4462 20.8631 13.2656 21.1 12.0018 21.1ZM12 19.8C14.1667 19.8 16.0084 19.0417 17.525 17.525C19.0417 16.0084 19.8 14.1667 19.8 12C19.8 9.83336 19.0417 7.99169 17.525 6.47502C16.0084 4.95836 14.1667 4.20002 12 4.20002C9.83336 4.20002 7.99169 4.95836 6.47502 6.47502C4.95836 7.99169 4.20002 9.83336 4.20002 12C4.20002 14.1667 4.95836 16.0084 6.47502 17.525C7.99169 19.0417 9.83336 19.8 12 19.8Z" fill="#171719"/>
</svg>
