<svg width="20" height="20" viewBox="0 0 20 20" fill="none" xmlns="http://www.w3.org/2000/svg">
<path d="M8.81733 11.7886L6.8815 9.85254C6.76608 9.73726 6.62101 9.67824 6.44629 9.67546C6.27171 9.67282 6.124 9.73185 6.00317 9.85254C5.88247 9.97337 5.82212 10.1198 5.82212 10.2917C5.82212 10.4637 5.88247 10.61 6.00317 10.7309L8.29004 13.0177C8.44073 13.1683 8.6165 13.2436 8.81733 13.2436C9.01817 13.2436 9.19393 13.1683 9.34462 13.0177L13.9809 8.3815C14.0962 8.26608 14.1552 8.12101 14.158 7.94629C14.1606 7.77171 14.1016 7.624 13.9809 7.50317C13.86 7.38247 13.7137 7.32212 13.5417 7.32212C13.3698 7.32212 13.2234 7.38247 13.1025 7.50317L8.81733 11.7886ZM10.0015 17.9167C8.9065 17.9167 7.87726 17.7089 6.91379 17.2934C5.95032 16.8778 5.11226 16.3139 4.39962 15.6015C3.68698 14.8891 3.12275 14.0514 2.70692 13.0884C2.29122 12.1253 2.08337 11.0964 2.08337 10.0015C2.08337 8.9065 2.29115 7.87726 2.70671 6.91379C3.12226 5.95032 3.68622 5.11226 4.39858 4.39962C5.11094 3.68698 5.94865 3.12275 6.91171 2.70692C7.87476 2.29122 8.90372 2.08337 9.99858 2.08337C11.0936 2.08337 12.1228 2.29115 13.0863 2.70671C14.0498 3.12226 14.8878 3.68622 15.6005 4.39858C16.3131 5.11094 16.8773 5.94865 17.2932 6.91171C17.7089 7.87476 17.9167 8.90372 17.9167 9.99858C17.9167 11.0936 17.7089 12.1228 17.2934 13.0863C16.8778 14.0498 16.3139 14.8878 15.6015 15.6005C14.8891 16.3131 14.0514 16.8773 13.0884 17.2932C12.1253 17.7089 11.0964 17.9167 10.0015 17.9167Z" fill="#171719"/>
</svg>
