<svg width="16" height="16" viewBox="0 0 16 16" fill="none" xmlns="http://www.w3.org/2000/svg">
<path d="M8.00013 11.1667C8.1419 11.1667 8.26063 11.1188 8.35629 11.0229C8.45207 10.9271 8.49996 10.8084 8.49996 10.6667V7.83342C8.49996 7.69175 8.45201 7.57297 8.35613 7.47708C8.26024 7.3813 8.14146 7.33342 7.99979 7.33342C7.85802 7.33342 7.73929 7.3813 7.64363 7.47708C7.54785 7.57297 7.49996 7.69175 7.49996 7.83342V10.6667C7.49996 10.8084 7.5479 10.9271 7.64379 11.0229C7.73968 11.1188 7.85846 11.1667 8.00013 11.1667ZM7.99996 6.19241C8.15252 6.19241 8.2804 6.1408 8.38363 6.03758C8.48685 5.93436 8.53846 5.80647 8.53846 5.65391C8.53846 5.50136 8.48685 5.37347 8.38363 5.27025C8.2804 5.16714 8.15252 5.11558 7.99996 5.11558C7.8474 5.11558 7.71952 5.16714 7.61629 5.27025C7.51307 5.37347 7.46146 5.50136 7.46146 5.65391C7.46146 5.80647 7.51307 5.93436 7.61629 6.03758C7.71952 6.1408 7.8474 6.19241 7.99996 6.19241ZM8.00113 14.3334C7.12513 14.3334 6.30174 14.1672 5.53096 13.8347C4.76018 13.5023 4.08974 13.0511 3.51963 12.4812C2.94951 11.9114 2.49813 11.2412 2.16546 10.4707C1.8329 9.7003 1.66663 8.87714 1.66663 8.00125C1.66663 7.12525 1.83285 6.30186 2.16529 5.53108C2.49774 4.7603 2.9489 4.08986 3.51879 3.51975C4.08868 2.94964 4.75885 2.49825 5.52929 2.16558C6.29974 1.83303 7.1229 1.66675 7.99879 1.66675C8.87479 1.66675 9.69818 1.83297 10.469 2.16541C11.2397 2.49786 11.9102 2.94903 12.4803 3.51891C13.0504 4.0888 13.5018 4.75897 13.8345 5.52942C14.167 6.29986 14.3333 7.12303 14.3333 7.99891C14.3333 8.87492 14.1671 9.6983 13.8346 10.4691C13.5022 11.2399 13.051 11.9103 12.4811 12.4804C11.9112 13.0505 11.2411 13.5019 10.4706 13.8346C9.70018 14.1671 8.87702 14.3334 8.00113 14.3334Z" fill="#171719"/>
</svg>
