<svg width="24" height="24" viewBox="0 0 24 24" fill="none" xmlns="http://www.w3.org/2000/svg">
<path d="M11.9948 16.5307C12.1938 16.5307 12.3624 16.4633 12.5005 16.3287C12.6387 16.194 12.7078 16.0272 12.7078 15.8282C12.7078 15.6292 12.6404 15.4606 12.5058 15.3224C12.3711 15.1844 12.2043 15.1154 12.0053 15.1154C11.8063 15.1154 11.6377 15.1827 11.4995 15.3172C11.3614 15.4518 11.2923 15.6187 11.2923 15.8177C11.2923 16.0167 11.3596 16.1852 11.4943 16.3234C11.6289 16.4616 11.7958 16.5307 11.9948 16.5307ZM11.995 13.2769C12.1779 13.2769 12.3327 13.2146 12.4595 13.0899C12.5865 12.9654 12.65 12.8111 12.65 12.6269V7.9269C12.65 7.74274 12.5882 7.58832 12.4645 7.46365C12.3409 7.33915 12.1877 7.2769 12.005 7.2769C11.8222 7.2769 11.6674 7.33915 11.5405 7.46365C11.4135 7.58832 11.35 7.74274 11.35 7.9269V12.6269C11.35 12.8111 11.4119 12.9654 11.5355 13.0899C11.6592 13.2146 11.8124 13.2769 11.995 13.2769ZM12.0085 21.0999C10.7567 21.0999 9.57769 20.8631 8.47152 20.3894C7.36536 19.9157 6.39719 19.264 5.56702 18.4342C4.73686 17.6043 4.08477 16.6369 3.61077 15.5319C3.13694 14.4271 2.90002 13.2465 2.90002 11.9902C2.90002 10.7338 3.13686 9.55674 3.61052 8.4589C4.08419 7.36107 4.73594 6.39707 5.56577 5.5669C6.39561 4.73674 7.36302 4.08465 8.46802 3.61065C9.57286 3.13682 10.7534 2.8999 12.0098 2.8999C13.2661 2.8999 14.4432 3.13674 15.541 3.6104C16.6389 4.08407 17.6029 4.73582 18.433 5.56565C19.2632 6.39549 19.9153 7.3609 20.3893 8.4619C20.8631 9.56307 21.1 10.7396 21.1 11.9914C21.1 13.2432 20.8632 14.4222 20.3895 15.5284C19.9159 16.6346 19.2641 17.6027 18.4343 18.4329C17.6044 19.2631 16.639 19.9152 15.538 20.3892C14.4369 20.863 13.2604 21.0999 12.0085 21.0999Z" fill="#171719"/>
</svg>
