<svg width="20" height="20" viewBox="0 0 20 20" fill="none" xmlns="http://www.w3.org/2000/svg">
<path d="M9.99996 10.774L12.5608 13.3351C12.6762 13.4504 12.8039 13.5059 12.9439 13.5017C13.0838 13.4974 13.2141 13.4349 13.335 13.3142C13.4557 13.1934 13.516 13.0644 13.516 12.9272C13.516 12.7899 13.4557 12.6613 13.335 12.5411L10.7739 9.98967L13.335 7.43821C13.4502 7.32348 13.5093 7.19612 13.512 7.05612C13.5147 6.91626 13.4557 6.78591 13.335 6.66508C13.2141 6.54439 13.0851 6.48404 12.9479 6.48404C12.8107 6.48404 12.6816 6.54439 12.5608 6.66508L9.99996 9.22612L7.43913 6.66508C7.32371 6.5498 7.19947 6.49078 7.06642 6.488C6.9335 6.48536 6.80663 6.54439 6.68579 6.66508C6.5651 6.78591 6.50475 6.91494 6.50475 7.05217C6.50475 7.18939 6.56454 7.31842 6.68413 7.43925L9.226 10.0001L6.66496 12.5609C6.54968 12.6763 6.49413 12.8006 6.49829 12.9336C6.5026 13.0665 6.5651 13.1934 6.68579 13.3142C6.80663 13.4349 6.93565 13.4953 7.07288 13.4953C7.2101 13.4953 7.3385 13.4355 7.45808 13.3159L9.99996 10.774ZM10.007 17.5834C8.96385 17.5834 7.98135 17.3861 7.05954 16.9913C6.13774 16.5966 5.33093 16.0535 4.63913 15.362C3.94732 14.6704 3.40392 13.8642 3.00892 12.9434C2.61406 12.0227 2.41663 11.0389 2.41663 9.99196C2.41663 8.94501 2.61399 7.96411 3.00871 7.04925C3.40343 6.13439 3.94656 5.33105 4.63808 4.63925C5.32961 3.94744 6.13579 3.40404 7.05663 3.00904C7.97732 2.61418 8.96114 2.41675 10.0081 2.41675C11.055 2.41675 12.0359 2.61411 12.9508 3.00883C13.8657 3.40355 14.669 3.94668 15.3608 4.63821C16.0526 5.32973 16.596 6.13425 16.991 7.05175C17.3859 7.96939 17.5833 8.9498 17.5833 9.993C17.5833 11.0362 17.3859 12.0187 16.9912 12.9405C16.5965 13.8623 16.0534 14.6691 15.3618 15.3609C14.6703 16.0527 13.8658 16.5961 12.9483 16.9911C12.0307 17.386 11.0502 17.5834 10.007 17.5834ZM9.99996 16.5001C11.8055 16.5001 13.3402 15.8681 14.6041 14.6042C15.868 13.3404 16.5 11.8056 16.5 10.0001C16.5 8.19453 15.868 6.6598 14.6041 5.39591C13.3402 4.13203 11.8055 3.50008 9.99996 3.50008C8.1944 3.50008 6.65968 4.13203 5.39579 5.39591C4.1319 6.6598 3.49996 8.19453 3.49996 10.0001C3.49996 11.8056 4.1319 13.3404 5.39579 14.6042C6.65968 15.8681 8.1944 16.5001 9.99996 16.5001Z" fill="#171719"/>
</svg>
