<svg width="16" height="16" viewBox="0 0 16 16" fill="none" xmlns="http://www.w3.org/2000/svg">
<path d="M8.00001 11.1257L5.40651 12.6897C5.30984 12.7461 5.21301 12.7698 5.11601 12.7608C5.01901 12.7518 4.93123 12.7192 4.85267 12.6628C4.77401 12.6064 4.71328 12.5327 4.67051 12.4417C4.62784 12.3507 4.62101 12.25 4.65001 12.1397L5.33851 9.19482L3.04884 7.21283C2.96328 7.13849 2.90878 7.05238 2.88534 6.95449C2.86178 6.8566 2.86795 6.76149 2.90384 6.66916C2.93973 6.57694 2.99145 6.50155 3.05901 6.44299C3.12656 6.38444 3.21889 6.34616 3.33601 6.32816L6.35767 6.06416L7.53084 3.28333C7.57351 3.17988 7.63823 3.10338 7.72501 3.05382C7.81178 3.00427 7.90345 2.97949 8.00001 2.97949C8.09656 2.97949 8.18823 3.00427 8.27501 3.05382C8.36178 3.10338 8.42651 3.17988 8.46917 3.28333L9.64234 6.06416L12.664 6.32816C12.7811 6.34616 12.8735 6.38444 12.941 6.44299C13.0086 6.50155 13.0603 6.57694 13.0962 6.66916C13.1321 6.76149 13.1382 6.8566 13.1147 6.95449C13.0912 7.05238 13.0367 7.13849 12.9512 7.21283L10.6615 9.19482L11.35 12.1397C11.379 12.25 11.3722 12.3507 11.3295 12.4417C11.2867 12.5327 11.226 12.6064 11.1473 12.6628C11.0688 12.7192 10.981 12.7518 10.884 12.7608C10.787 12.7698 10.6902 12.7461 10.5935 12.6897L8.00001 11.1257Z" fill="#1F1F1F"/>
</svg>
