<svg width="20" height="20" viewBox="0 0 20 20" fill="none" xmlns="http://www.w3.org/2000/svg">
<path d="M9.99996 10.625C9.24788 10.625 8.60843 10.3616 8.08163 9.83497C7.55496 9.30817 7.29163 8.66872 7.29163 7.91664C7.29163 7.16455 7.55496 6.52511 8.08163 5.9983C8.60843 5.47164 9.24788 5.2083 9.99996 5.2083C10.752 5.2083 11.3915 5.47164 11.9183 5.9983C12.445 6.52511 12.7083 7.16455 12.7083 7.91664C12.7083 8.66872 12.445 9.30817 11.9183 9.83497C11.3915 10.3616 10.752 10.625 9.99996 10.625ZM9.99996 9.37497C10.4007 9.37497 10.7438 9.23205 11.0295 8.94622C11.3154 8.66053 11.4583 8.31733 11.4583 7.91664C11.4583 7.51594 11.3154 7.17275 11.0295 6.88705C10.7438 6.60122 10.4007 6.4583 9.99996 6.4583C9.59927 6.4583 9.25607 6.60122 8.97038 6.88705C8.68454 7.17275 8.54163 7.51594 8.54163 7.91664C8.54163 8.31733 8.68454 8.66053 8.97038 8.94622C9.25607 9.23205 9.59927 9.37497 9.99996 9.37497ZM3.63621 14.3733C3.4076 14.2366 3.23051 14.0539 3.10496 13.8252C2.9794 13.5966 2.91663 13.3498 2.91663 13.085V6.91497C2.91663 6.65011 2.9794 6.40337 3.10496 6.17476C3.23051 5.94601 3.4076 5.7633 3.63621 5.62664L9.21308 2.21164C9.45878 2.06094 9.72107 1.9856 9.99996 1.9856C10.2788 1.9856 10.5411 2.06094 10.7868 2.21164L16.3637 5.62664C16.5923 5.7633 16.7694 5.94601 16.895 6.17476C17.0205 6.40337 17.0833 6.65011 17.0833 6.91497V13.085C17.0833 13.3498 17.0205 13.5966 16.895 13.8252C16.7694 14.0539 16.5923 14.2366 16.3637 14.3733L10.7868 17.7883C10.5411 17.939 10.2788 18.0143 9.99996 18.0143C9.72107 18.0143 9.45878 17.939 9.21308 17.7883L3.63621 14.3733ZM9.99996 13.9583C9.4294 13.9583 8.86767 14.0302 8.31475 14.1739C7.76197 14.3175 7.23607 14.5277 6.73704 14.8043L9.86371 16.7323C9.90649 16.7591 9.9519 16.7725 9.99996 16.7725C10.048 16.7725 10.0934 16.7591 10.1362 16.7323L13.2629 14.8043C12.7638 14.5277 12.2379 14.3175 11.6852 14.1739C11.1323 14.0302 10.5705 13.9583 9.99996 13.9583ZM5.53371 14.0656C6.20135 13.6309 6.91364 13.2959 7.67058 13.0608C8.42753 12.8258 9.20399 12.7083 9.99996 12.7083C10.7959 12.7083 11.5724 12.8258 12.3293 13.0608C13.0863 13.2959 13.7986 13.6309 14.4662 14.0656L15.7131 13.3221C15.7559 13.2954 15.7866 13.2634 15.8052 13.226C15.8239 13.1885 15.8333 13.1484 15.8333 13.1058V6.91497C15.8333 6.87233 15.8239 6.83226 15.8052 6.79476C15.7866 6.7574 15.7559 6.72539 15.7131 6.69872L10.1362 3.28851C10.0934 3.26171 10.048 3.2483 9.99996 3.2483C9.9519 3.2483 9.90649 3.26171 9.86371 3.28851L4.28683 6.69872C4.24406 6.72539 4.21336 6.7574 4.19475 6.79476C4.176 6.83226 4.16663 6.87233 4.16663 6.91497V13.1058C4.16663 13.1484 4.176 13.1885 4.19475 13.226C4.21336 13.2634 4.24406 13.2954 4.28683 13.3221L5.53371 14.0656Z" fill="#1F1F1F"/>
</svg>
