<svg width="20" height="20" viewBox="0 0 20 20" fill="none" xmlns="http://www.w3.org/2000/svg">
<path d="M10.0002 13.9583C10.1775 13.9583 10.3259 13.8983 10.4455 13.7785C10.5652 13.6587 10.625 13.5103 10.625 13.3333V9.79158C10.625 9.6145 10.5651 9.46603 10.4452 9.34617C10.3254 9.22645 10.1769 9.16658 9.99983 9.16658C9.82261 9.16658 9.67421 9.22645 9.55462 9.34617C9.4349 9.46603 9.37504 9.6145 9.37504 9.79158V13.3333C9.37504 13.5103 9.43497 13.6587 9.55483 13.7785C9.67469 13.8983 9.82317 13.9583 10.0002 13.9583ZM10 7.74033C10.1907 7.74033 10.3506 7.67582 10.4796 7.54679C10.6087 7.41777 10.6732 7.2579 10.6732 7.06721C10.6732 6.87651 10.6087 6.71665 10.4796 6.58763C10.3506 6.45874 10.1907 6.39429 10 6.39429C9.80935 6.39429 9.64949 6.45874 9.52046 6.58763C9.39143 6.71665 9.32692 6.87651 9.32692 7.06721C9.32692 7.2579 9.39143 7.41777 9.52046 7.54679C9.64949 7.67582 9.80935 7.74033 10 7.74033ZM10.0015 17.9166C8.9065 17.9166 7.87726 17.7088 6.91379 17.2933C5.95032 16.8777 5.11226 16.3137 4.39962 15.6014C3.68698 14.889 3.12275 14.0513 2.70692 13.0883C2.29122 12.1252 2.08337 11.0962 2.08337 10.0014C2.08337 8.90638 2.29115 7.87714 2.70671 6.91367C3.12226 5.9502 3.68622 5.11214 4.39858 4.3995C5.11094 3.68686 5.94865 3.12263 6.91171 2.70679C7.87476 2.2911 8.90372 2.08325 9.99858 2.08325C11.0936 2.08325 12.1228 2.29103 13.0863 2.70658C14.0498 3.12214 14.8878 3.6861 15.6005 4.39846C16.3131 5.11082 16.8773 5.94853 17.2932 6.91159C17.7089 7.87464 17.9167 8.9036 17.9167 9.99846C17.9167 11.0935 17.7089 12.1227 17.2934 13.0862C16.8778 14.0496 16.3139 14.8877 15.6015 15.6003C14.8891 16.313 14.0514 16.8772 13.0884 17.293C12.1253 17.7087 11.0964 17.9166 10.0015 17.9166Z" fill="#171719"/>
</svg>
