<svg width="20" height="20" viewBox="0 0 20 20" fill="none" xmlns="http://www.w3.org/2000/svg">
<path d="M4.08258 2.29115C4.21022 1.65393 5.10252 1.65393 5.23016 2.29115C5.58765 3.69852 6.58997 4.72071 7.96925 5.08602C8.59375 5.21626 8.59375 6.12673 7.96925 6.25697C6.58997 6.62228 5.58765 7.64447 5.23016 9.05184C5.10252 9.68906 4.21022 9.68906 4.08258 9.05184C3.72404 7.64447 2.72277 6.62228 1.3435 6.25697C0.718997 6.12673 0.718997 5.21626 1.3435 5.08602C2.64368 4.79836 3.73754 3.69852 4.08258 2.29115Z" fill="#1F1F1F"/>
<path d="M11.8112 6.21018C12.0116 5.19622 13.412 5.19622 13.6124 6.21018C14.1597 8.44962 15.7466 10.0907 17.9114 10.6575C18.8916 10.8647 18.8916 12.3135 17.9114 12.5207C15.7466 13.0837 14.1597 14.7285 13.6124 16.968C13.412 17.9819 12.0116 17.9819 11.8112 16.968C11.2665 14.7285 9.67701 13.0837 7.51222 12.5207C6.53206 12.3135 6.53206 10.8647 7.51222 10.6575C9.67701 10.0907 11.2665 8.44962 11.8112 6.21018Z" fill="#1F1F1F"/>
</svg>
