<svg width="16" height="16" viewBox="0 0 16 16" fill="none" xmlns="http://www.w3.org/2000/svg">
<path d="M3.26598 1.83253C3.36809 1.32275 4.08193 1.32275 4.18405 1.83253C4.47004 2.95842 5.27189 3.77618 6.37531 4.06842C6.87491 4.17262 6.87491 4.90099 6.37531 5.00519C5.27189 5.29743 4.47004 6.11519 4.18405 7.24108C4.08193 7.75086 3.36809 7.75086 3.26598 7.24108C2.97914 6.11519 2.17813 5.29743 1.07471 5.00519C0.575112 4.90099 0.575112 4.17262 1.07471 4.06842C2.11486 3.8383 2.98995 2.95842 3.26598 1.83253Z" fill="#1F1F1F"/>
<path d="M9.44882 4.96775C9.60909 4.15658 10.7295 4.15658 10.8897 4.96775C11.3276 6.75931 12.5971 8.07221 14.3289 8.52557C15.1131 8.69137 15.1131 9.85038 14.3289 10.0162C12.5971 10.4666 11.3276 11.7824 10.8897 13.574C10.7295 14.3852 9.60909 14.3852 9.44882 13.574C9.01303 11.7824 7.74144 10.4666 6.00961 10.0162C5.22548 9.85038 5.22548 8.69137 6.00961 8.52557C7.74144 8.07221 9.01303 6.75931 9.44882 4.96775Z" fill="#1F1F1F"/>
</svg>
